<svg version="1.1" id="Layer_1" xmlns="http://www.w3.org/2000/svg" xmlns:xlink="http://www.w3.org/1999/xlink" x="0px" y="0px"
	 width="100%" viewBox="0 0 135 135" enable-background="new 0 0 135 135" xml:space="preserve">
<path fill="#C6C6C6" opacity="1.000000" stroke="none" 
	d="
M0.999999,76.000000 
	C1.000000,70.645073 1.000000,65.290138 1.317074,59.801483 
	C2.073744,58.673771 2.737738,57.719009 2.919358,56.679935 
	C5.758071,40.439159 13.536941,26.819483 26.162931,16.512918 
	C41.737900,3.799109 59.903423,0.672588 79.609169,3.919487 
	C108.393753,8.662301 131.207230,32.701157 133.868469,63.218037 
	C135.466461,81.542526 129.987167,98.244453 117.491684,111.831726 
	C101.681137,129.023697 82.021645,136.201736 58.447109,133.147949 
	C29.752995,129.430969 6.369269,106.053482 2.886289,77.888489 
	C2.800145,77.191895 1.652542,76.626556 0.999999,76.000000 
M25.924217,49.521866 
	C21.499676,59.071209 20.906975,69.078232 23.189581,79.145035 
	C25.271984,88.328903 29.833517,96.676308 36.805218,102.804787 
	C48.162586,112.788506 61.685265,116.556435 76.779175,112.992638 
	C86.054337,110.802711 94.508987,106.862633 100.971489,99.765976 
	C111.673286,88.014046 116.224075,74.332809 113.040627,58.360413 
	C111.264778,49.450401 107.167137,41.552704 100.758377,35.645588 
	C93.166939,28.648361 84.390686,23.751995 73.226524,22.604971 
	C63.625557,21.618553 55.115185,23.398783 46.928558,27.170364 
	C37.385792,31.566715 30.630802,39.253136 25.924217,49.521866 
z"/>
<path fill="#000000" opacity="1.000000" stroke="none" 
	d="
M0.999999,76.468658 
	C1.652542,76.626556 2.800145,77.191895 2.886289,77.888489 
	C6.369269,106.053482 29.752995,129.430969 58.447109,133.147949 
	C82.021645,136.201736 101.681137,129.023697 117.491684,111.831726 
	C129.987167,98.244453 135.466461,81.542526 133.868469,63.218037 
	C131.207230,32.701157 108.393753,8.662301 79.609169,3.919487 
	C59.903423,0.672588 41.737900,3.799109 26.162931,16.512918 
	C13.536941,26.819483 5.758071,40.439159 2.919358,56.679935 
	C2.737738,57.719009 2.073744,58.673771 1.317074,59.333878 
	C1.000000,39.682850 1.000000,20.365696 1.000000,1.024272 
	C45.946144,1.024272 90.892311,1.024272 135.919235,1.024272 
	C135.919235,45.908363 135.919235,90.816925 135.919235,135.862732 
	C91.000267,135.862732 46.000198,135.862732 1.000000,135.862732 
	C1.000000,116.237732 1.000000,96.587524 0.999999,76.468658 
z"/>
<path fill="#000000" opacity="1.000000" stroke="none" 
	d="
M25.980747,49.132942 
	C30.630802,39.253136 37.385792,31.566715 46.928558,27.170364 
	C55.115185,23.398783 63.625557,21.618553 73.226524,22.604971 
	C84.390686,23.751995 93.166939,28.648361 100.758377,35.645588 
	C107.167137,41.552704 111.264778,49.450401 113.040627,58.360413 
	C116.224075,74.332809 111.673286,88.014046 100.971489,99.765976 
	C94.508987,106.862633 86.054337,110.802711 76.779175,112.992638 
	C61.685265,116.556435 48.162586,112.788506 36.805218,102.804787 
	C29.833517,96.676308 25.271984,88.328903 23.189581,79.145035 
	C20.906975,69.078232 21.499676,59.071209 25.980747,49.132942 
z"/>
</svg>